<?xml version="1.0" encoding="utf-8"?>
<!-- Generator: Adobe Illustrator 26.3.1, SVG Export Plug-In . SVG Version: 6.00 Build 0)  -->
<svg version="1.1" id="圖層_1" xmlns="http://www.w3.org/2000/svg" xmlns:xlink="http://www.w3.org/1999/xlink" x="0px" y="0px"
	 viewBox="0 0 22 22" style="enable-background:new 0 0 22 22;" xml:space="preserve">
<style type="text/css">
	.st0{fill:#FFFFFF;}
</style>
<g>
	<path class="st0" d="M5,17.2h8.3v-1.8H5V17.2z M5,12h12.3v-1.8H5L5,12z M5,6.8h12.3V5H5L5,6.8z M2.1,22c-0.5,0-0.9-0.2-1.3-0.5
		s-0.5-0.8-0.5-1.3V2c0-0.5,0.2-0.9,0.5-1.3s0.8-0.5,1.3-0.5h18.2c0.5,0,0.9,0.2,1.3,0.5s0.5,0.8,0.5,1.3v18.2
		c0,0.5-0.2,0.9-0.5,1.3c-0.4,0.4-0.8,0.5-1.3,0.5H2.1z M2.1,20.2h18.2V2H2.1V20.2z M2.1,2v18.2V2z"/>
</g>
</svg>
