<?xml version="1.0" encoding="utf-8"?>
<!-- Generator: Adobe Illustrator 26.3.1, SVG Export Plug-In . SVG Version: 6.00 Build 0)  -->
<svg version="1.1" id="圖層_1" xmlns="http://www.w3.org/2000/svg" xmlns:xlink="http://www.w3.org/1999/xlink" x="0px" y="0px"
	 viewBox="0 0 55 55" style="enable-background:new 0 0 55 55;" xml:space="preserve">
<style type="text/css">
	.st0{fill:#FFFFFF;}
</style>
<path class="st0" d="M9.8,43c2.9-2,5.8-3.6,8.6-4.6c2.8-1.1,5.9-1.6,9.1-1.6s6.3,0.5,9.2,1.6c2.9,1.1,5.7,2.6,8.6,4.6
	c2-2.5,3.4-5,4.3-7.5c0.8-2.5,1.3-5.2,1.3-8c0-6.6-2.2-12.2-6.7-16.7c-4.5-4.5-10-6.7-16.7-6.7s-12.2,2.2-16.7,6.7
	c-4.5,4.5-6.7,10-6.7,16.7c0,2.8,0.4,5.5,1.3,8C6.3,38,7.7,40.5,9.8,43z M27.5,29.6c-2.7,0-4.9-0.9-6.7-2.7s-2.7-4-2.7-6.7
	c0-2.7,0.9-4.9,2.7-6.7s4-2.7,6.7-2.7s4.9,0.9,6.7,2.7c1.8,1.8,2.7,4,2.7,6.7c0,2.7-0.9,4.9-2.7,6.7C32.4,28.7,30.2,29.6,27.5,29.6z
	 M27.5,55c-3.8,0-7.3-0.7-10.7-2.2c-3.3-1.4-6.3-3.4-8.8-5.9c-2.5-2.5-4.5-5.4-5.9-8.8C0.7,34.8,0,31.3,0,27.5
	c0-3.8,0.7-7.4,2.2-10.7c1.4-3.3,3.4-6.2,5.9-8.7c2.5-2.5,5.4-4.5,8.8-5.9C20.2,0.7,23.7,0,27.5,0c3.8,0,7.4,0.7,10.7,2.2
	c3.3,1.4,6.2,3.4,8.7,5.9c2.5,2.5,4.5,5.4,5.9,8.7c1.4,3.3,2.2,6.9,2.2,10.7c0,3.8-0.7,7.3-2.2,10.7c-1.4,3.3-3.4,6.3-5.9,8.8
	c-2.5,2.5-5.4,4.5-8.7,5.9C34.9,54.3,31.3,55,27.5,55z M27.5,50.9c2.5,0,5-0.4,7.4-1.1c2.4-0.7,4.8-2,7.1-3.9
	c-2.3-1.6-4.7-2.9-7.1-3.8c-2.4-0.9-4.9-1.3-7.4-1.3s-4.9,0.4-7.4,1.3c-2.4,0.9-4.8,2.1-7.1,3.8c2.3,1.8,4.7,3.1,7.1,3.9
	C22.5,50.5,25,50.9,27.5,50.9z M27.5,25.4c1.6,0,2.8-0.5,3.8-1.5s1.5-2.3,1.5-3.8c0-1.6-0.5-2.8-1.5-3.8s-2.3-1.5-3.8-1.5
	s-2.8,0.5-3.8,1.5c-1,1-1.5,2.3-1.5,3.8c0,1.6,0.5,2.8,1.5,3.8C24.7,24.9,25.9,25.4,27.5,25.4z"/>
</svg>
