<?xml version="1.0" encoding="utf-8"?>
<!-- Generator: Adobe Illustrator 26.3.1, SVG Export Plug-In . SVG Version: 6.00 Build 0)  -->
<svg version="1.1" id="圖層_1" xmlns="http://www.w3.org/2000/svg" xmlns:xlink="http://www.w3.org/1999/xlink" x="0px" y="0px"
	 viewBox="0 0 22 22" style="enable-background:new 0 0 22 22;" xml:space="preserve">
<style type="text/css">
	.st0{fill:#FFFFFF;}
</style>
<path class="st0" d="M0,16.5V1.2c0-0.3,0.1-0.5,0.4-0.8S0.8,0,1.1,0h14.3c0.3,0,0.5,0.1,0.8,0.4c0.2,0.2,0.4,0.5,0.4,0.8V11
	c0,0.3-0.1,0.5-0.4,0.8c-0.2,0.3-0.5,0.4-0.8,0.4h-11L0,16.5z M5.5,17.6c-0.3,0-0.5-0.1-0.8-0.4c-0.2-0.3-0.4-0.5-0.4-0.8v-2.7h13.8
	V4.4h2.8c0.3,0,0.5,0.1,0.7,0.4S22,5.3,22,5.6V22l-4.4-4.4H5.5z M14.9,1.7H1.6v10.9l2.1-2.1h11.1V1.7z M1.6,1.7v10.9V1.7z"/>
</svg>
