<?xml version="1.0" encoding="utf-8"?>
<!-- Generator: Adobe Illustrator 26.3.1, SVG Export Plug-In . SVG Version: 6.00 Build 0)  -->
<svg version="1.1" id="圖層_1" xmlns="http://www.w3.org/2000/svg" xmlns:xlink="http://www.w3.org/1999/xlink" x="0px" y="0px"
	 viewBox="0 0 22 22" style="enable-background:new 0 0 22 22;" xml:space="preserve">
<style type="text/css">
	.st0{fill:#FFFFFF;}
</style>
<path class="st0" d="M4.4,21.3c-0.5,0-0.9-0.2-1.2-0.5s-0.5-0.7-0.5-1.2V3.2H1.5V1.5h5.4V0.6h7.6v0.9h5.4v1.7h-1.2v16.4
	c0,0.5-0.2,0.9-0.5,1.2c-0.3,0.3-0.7,0.5-1.2,0.5H4.4z M17,3.2H4.4v16.4H17V3.2z M7.5,17.1h1.7V5.7H7.5V17.1z M12.3,17.1H14V5.7
	h-1.7V17.1z M4.4,3.2v16.4V3.2z"/>
</svg>
