<svg width="247" height="233" viewBox="0 0 247 233" fill="none" xmlns="http://www.w3.org/2000/svg">
<rect x="9.53674e-06" y="232.103" width="232.103" height="246.431" rx="8" transform="rotate(-90 9.53674e-06 232.103)" fill="#BFBFBF"/>
<path d="M28.0415 40.1644H41.8735V43.6924H28.0415V40.1644ZM25.2415 38.0924V45.7644H44.8415V38.0924H25.2415ZM30.0575 34.9004V37.0844H39.9415V34.9004H30.0575ZM33.5015 38.7644V44.6724H36.2175V38.7644H33.5015ZM34.8455 32.5764C37.5615 35.0964 42.5175 37.7004 46.4095 39.0164C46.9135 38.1484 47.6415 37.0004 48.3695 36.2444C44.0295 35.1524 39.4935 32.9404 36.3015 29.9724H33.1095C30.8135 32.4644 26.2215 35.0964 21.6295 36.4684C22.2175 37.1684 23.0015 38.3724 23.3655 39.1284C27.7895 37.5884 32.3535 34.9844 34.8455 32.5764ZM29.0215 40.7804C29.4975 41.7604 29.8895 43.0484 30.0015 43.8884L32.4655 43.1604C32.2975 42.3204 31.8495 41.0884 31.3455 40.1364L29.0215 40.7804ZM38.2895 40.0244C38.0655 40.9484 37.5335 42.3204 37.1415 43.2444L39.4375 43.8604C39.8855 43.0764 40.4455 41.9004 41.0615 40.6964L38.2895 40.0244ZM26.7815 46.6604V56.2644H30.0855V48.8444H39.9135V56.1804H43.3575V46.6604H26.7815ZM28.6855 49.9644V52.1764H41.3415V49.9644H28.6855ZM28.6855 53.3244V55.5084H41.3415V53.3244H28.6855ZM57.3575 33.4724H68.7255V35.2644H57.3575V33.4724ZM53.9975 30.8684V37.8964H72.3095V30.8684H53.9975ZM56.0695 44.5604H69.8175V45.7364H56.0695V44.5604ZM56.0695 47.8924H69.8175V49.0964H56.0695V47.8924ZM56.0695 41.2284H69.8175V42.4044H56.0695V41.2284ZM52.7095 38.9324V51.3644H73.3175V38.9324H52.7095ZM58.1415 50.8044C56.3775 51.8964 52.7935 53.2124 49.8535 53.8564C50.6655 54.5004 51.7855 55.5644 52.4015 56.2644C55.2575 55.5924 58.8975 54.2204 61.1375 52.9044L58.1415 50.8044ZM64.3015 53.0724C67.2975 53.9124 71.1615 55.3124 73.3455 56.3204L76.2855 53.9404C73.9615 53.0444 70.2095 51.7284 67.2415 50.9444L64.3015 53.0724ZM85.2735 53.0724V55.5364H98.9375V53.0724H85.2735ZM89.2775 35.8524V39.2124H92.5255V35.8524H89.2775ZM78.9455 37.7844V43.3564H82.1095V40.3044H100.029V43.3564H103.305V37.7844H78.9455ZM85.1615 41.4804V43.8884H95.5215V45.3444H85.1615V47.7524H98.8815V41.4804H85.1615ZM85.3015 49.0124V51.4764H97.6495V56.2924H101.009V49.0124H85.3015ZM83.3135 41.4804V56.3204H86.5055V41.4804H83.3135ZM81.7735 31.9324V34.5644H90.5935V31.9324H81.7735ZM93.1135 31.9324V34.5644H103.977V31.9324H93.1135ZM81.8855 29.7484C81.0175 31.8764 79.4215 34.0604 77.7415 35.4604C78.4975 35.8524 79.8415 36.7484 80.4855 37.2524C82.1375 35.6564 83.9295 33.1084 85.0215 30.5884L81.8855 29.7484ZM93.2815 29.7484C92.4695 31.7924 90.9015 33.8364 89.1095 35.1244C89.9495 35.4884 91.3775 36.2164 92.0495 36.7204C93.7295 35.2644 95.4655 32.9404 96.4735 30.5324L93.2815 29.7484ZM82.8095 33.9764C83.4815 34.9844 84.2095 36.4124 84.4615 37.2804L87.4855 36.4124C87.1495 35.5164 86.3655 34.1724 85.6655 33.2204L82.8095 33.9764ZM95.3255 34.0604C96.1095 35.0404 97.0335 36.4684 97.3975 37.3084L100.505 36.4404C100.057 35.5444 99.0775 34.2004 98.2655 33.2764L95.3255 34.0604ZM119.377 38.9884H127.861V41.3964H119.377V38.9884ZM119.377 34.0044H127.861V36.3564H119.377V34.0044ZM116.353 31.1484V44.2244H131.053V31.1484H116.353ZM116.157 46.6324V49.6564H131.361V46.6324H116.157ZM114.197 52.3444V55.3684H132.285V52.3444H114.197ZM105.993 31.5684V34.7044H115.289V31.5684H105.993ZM106.273 39.6324V42.7404H114.813V39.6324H106.273ZM105.685 50.2724L106.441 53.6884C109.129 52.8204 112.489 51.7284 115.625 50.6644L115.037 47.4444C111.677 48.5364 108.093 49.6564 105.685 50.2724ZM109.101 32.8004V50.5244L112.293 50.0204V32.8004H109.101ZM122.261 32.3524V42.9084H121.953V53.7724H125.397V42.9084H125.089V32.3524H122.261Z" fill="#41464B"/>
<path d="M132.767 209.179V199.637C132.767 197.268 133.396 195.12 134.653 193.191C135.911 191.262 137.658 189.824 139.894 188.877C144.994 186.711 149.589 185.154 153.676 184.207C157.764 183.259 161.973 182.786 166.305 182.786C170.637 182.786 174.83 183.259 178.882 184.207C182.935 185.154 187.512 186.711 192.612 188.877C194.848 189.824 196.612 191.262 197.905 193.191C199.198 195.12 199.844 197.268 199.844 199.637V209.179H132.767ZM206.132 209.179V199.637C206.132 195.373 205.014 191.871 202.779 189.13C200.543 186.389 197.608 184.173 193.975 182.481C198.796 183.023 203.338 183.818 207.6 184.867C211.862 185.916 215.321 187.117 217.976 188.47C220.281 189.756 222.098 191.347 223.426 193.242C224.753 195.137 225.417 197.268 225.417 199.637V209.179H206.132ZM166.305 176.593C161.694 176.593 157.921 175.172 154.986 172.33C152.051 169.487 150.584 165.833 150.584 161.366C150.584 156.9 152.051 153.245 154.986 150.403C157.921 147.56 161.694 146.139 166.305 146.139C170.917 146.139 174.69 147.56 177.625 150.403C180.559 153.245 182.027 156.9 182.027 161.366C182.027 165.833 180.559 169.487 177.625 172.33C174.69 175.172 170.917 176.593 166.305 176.593ZM188.315 176.593C187.546 176.593 186.691 176.543 185.747 176.441C184.804 176.34 183.948 176.153 183.179 175.883C184.856 174.191 186.132 172.11 187.005 169.64C187.878 167.169 188.315 164.412 188.315 161.366C188.315 158.321 187.878 155.631 187.005 153.296C186.132 150.961 184.856 148.812 183.179 146.85C183.948 146.647 184.804 146.477 185.747 146.342C186.691 146.207 187.546 146.139 188.315 146.139C192.927 146.139 196.7 147.56 199.634 150.403C202.569 153.245 204.036 156.9 204.036 161.366C204.036 165.833 202.569 169.487 199.634 172.33C196.7 175.172 192.927 176.593 188.315 176.593ZM139.055 203.089H193.555V199.637C193.555 198.554 193.224 197.505 192.56 196.49C191.896 195.475 191.075 194.764 190.097 194.358C185.066 192.193 180.839 190.738 177.415 189.993C173.991 189.249 170.288 188.877 166.305 188.877C162.323 188.877 158.602 189.249 155.143 189.993C151.685 190.738 147.44 192.193 142.409 194.358C141.431 194.764 140.627 195.475 139.999 196.49C139.37 197.505 139.055 198.554 139.055 199.637V203.089ZM166.305 170.502C169.03 170.502 171.284 169.64 173.065 167.914C174.847 166.188 175.738 164.006 175.738 161.366C175.738 158.727 174.847 156.544 173.065 154.819C171.284 153.093 169.03 152.23 166.305 152.23C163.58 152.23 161.327 153.093 159.545 154.819C157.764 156.544 156.873 158.727 156.873 161.366C156.873 164.006 157.764 166.188 159.545 167.914C161.327 169.64 163.58 170.502 166.305 170.502Z" fill="white"/>
<path d="M21.0135 82.1435H225.417" stroke="white" stroke-width="2"/>
</svg>
