<?xml version="1.0" encoding="utf-8"?>
<!-- Generator: Adobe Illustrator 26.3.1, SVG Export Plug-In . SVG Version: 6.00 Build 0)  -->
<svg version="1.1" id="圖層_1" xmlns="http://www.w3.org/2000/svg" xmlns:xlink="http://www.w3.org/1999/xlink" x="0px" y="0px"
	 viewBox="0 0 25 17" style="enable-background:new 0 0 25 17;" xml:space="preserve">
<style type="text/css">
	.st0{fill:#FFFFFF;}
</style>
<path class="st0" d="M0,17v-2.6c0-0.6,0.2-1.2,0.5-1.7c0.3-0.5,0.8-0.9,1.4-1.2c1.4-0.6,2.6-1,3.7-1.3C6.7,10,7.9,9.9,9,9.9
	c1.2,0,2.3,0.1,3.4,0.4c1.1,0.3,2.3,0.7,3.7,1.3c0.6,0.3,1.1,0.6,1.4,1.2c0.3,0.5,0.5,1.1,0.5,1.7V17H0z M19.8,17v-2.6
	c0-1.1-0.3-2.1-0.9-2.8s-1.4-1.3-2.4-1.8c1.3,0.1,2.5,0.4,3.7,0.6c1.2,0.3,2.1,0.6,2.8,1c0.6,0.3,1.1,0.8,1.5,1.3
	c0.4,0.5,0.5,1.1,0.5,1.7V17H19.8z M9,8.2C7.8,8.2,6.8,7.8,6,7.1c-0.8-0.8-1.2-1.8-1.2-3s0.4-2.2,1.2-3C6.8,0.4,7.8,0,9,0
	c1.2,0,2.3,0.4,3.1,1.1c0.8,0.8,1.2,1.8,1.2,3s-0.4,2.2-1.2,3C11.3,7.8,10.3,8.2,9,8.2z M15,8.2c-0.2,0-0.4,0-0.7,0
	c-0.3,0-0.5-0.1-0.7-0.2c0.5-0.5,0.8-1,1-1.7C14.9,5.7,15,4.9,15,4.1s-0.1-1.5-0.4-2.2c-0.2-0.6-0.6-1.2-1-1.7
	c0.2-0.1,0.4-0.1,0.7-0.1C14.6,0,14.8,0,15,0c1.2,0,2.3,0.4,3.1,1.1c0.8,0.8,1.2,1.8,1.2,3s-0.4,2.2-1.2,3C17.3,7.8,16.2,8.2,15,8.2
	z M1.7,15.4h14.7v-0.9c0-0.3-0.1-0.6-0.3-0.8c-0.2-0.3-0.4-0.5-0.7-0.6c-1.4-0.6-2.5-1-3.4-1.2c-0.9-0.2-1.9-0.3-3-0.3
	c-1.1,0-2.1,0.1-3,0.3C5.1,12,4,12.4,2.6,13c-0.3,0.1-0.5,0.3-0.7,0.6c-0.2,0.3-0.3,0.6-0.3,0.8V15.4z M9,6.6c0.7,0,1.3-0.2,1.8-0.7
	c0.5-0.5,0.7-1.1,0.7-1.8c0-0.7-0.2-1.3-0.7-1.8C10.4,1.9,9.8,1.6,9,1.6c-0.7,0-1.3,0.2-1.8,0.7S6.5,3.4,6.5,4.1
	c0,0.7,0.2,1.3,0.7,1.8C7.7,6.3,8.3,6.6,9,6.6z"/>
</svg>
