<?xml version="1.0" encoding="utf-8"?>
<!-- Generator: Adobe Illustrator 26.3.1, SVG Export Plug-In . SVG Version: 6.00 Build 0)  -->
<svg version="1.1" id="圖層_1" xmlns="http://www.w3.org/2000/svg" xmlns:xlink="http://www.w3.org/1999/xlink" x="0px" y="0px"
	 viewBox="0 0 261 222" style="enable-background:new 0 0 261 222;" xml:space="preserve">
<style type="text/css">
	.st0{opacity:0.5;}
	.st1{clip-path:url(#SVGID_00000175311518943887413860000000216869333688839321_);}
	.st2{fill:url(#SVGID_00000170974841884154712020000009774463278468462211_);}
	.st3{fill:url(#SVGID_00000087375496982891140500000007718083459431646081_);}
	.st4{fill:url(#SVGID_00000085241314257029403220000015543687675950415295_);}
	.st5{fill:url(#SVGID_00000163755366056088313590000000815042156856828835_);}
	.st6{fill:url(#SVGID_00000154416007848511369990000015098173671652019640_);}
	.st7{fill:url(#SVGID_00000088854929816515831440000012470521546272237475_);}
	.st8{fill:url(#SVGID_00000084497688872194542250000005425591831421930420_);}
	.st9{fill:url(#SVGID_00000173866374177282312200000005043480111654032772_);}
	.st10{fill:url(#SVGID_00000042001523038716403360000015369381387485495725_);}
	.st11{fill:url(#SVGID_00000088124177327227621740000017120968097027410318_);}
	.st12{fill:url(#SVGID_00000160880344815064477860000018094762206160974233_);}
	.st13{fill:url(#SVGID_00000064314790176334550890000002108069474771007921_);}
	.st14{fill:url(#SVGID_00000137111864729205122060000017921169151884437936_);}
	.st15{fill:url(#SVGID_00000009557173804669965910000006986554559467378858_);}
	.st16{fill:url(#SVGID_00000026864504737444102940000000196925646494977423_);}
</style>
<g class="st0">
	<g>
		<g>
			<g>
				<g>
					<defs>
						<rect id="SVGID_1_" x="-12" y="-59" width="527" height="268"/>
					</defs>
					<clipPath id="SVGID_00000152225727133546521720000002400481053309385396_">
						<use xlink:href="#SVGID_1_"  style="overflow:visible;"/>
					</clipPath>
					<g style="clip-path:url(#SVGID_00000152225727133546521720000002400481053309385396_);">
						
							<linearGradient id="SVGID_00000067915838521825682470000017366990043097305992_" gradientUnits="userSpaceOnUse" x1="6.2513" y1="-70.1932" x2="364.2513" y2="121.8068">
							<stop  offset="0" style="stop-color:#5A6862"/>
							<stop  offset="0.2196" style="stop-color:#52625E"/>
							<stop  offset="0.5592" style="stop-color:#989079"/>
							<stop  offset="1" style="stop-color:#52625E"/>
						</linearGradient>
						<path style="fill:url(#SVGID_00000067915838521825682470000017366990043097305992_);" d="M-11.9,63.1
							c13.9-5,28.5-7.9,43.3-5.9c12.5,1.7,23.9,7.3,34,14.6c11.3,8.1,20.9,18.4,30.2,28.7c9.7,10.8,18.9,22.1,28.4,33
							c18.6,21.5,39,42.5,65.1,54.8c13.1,6.1,27.5,9.8,41.8,11.4c13.4,1.5,27,0.8,39.9-3.2c28.3-8.6,47.6-33.8,53-62.2
							c2.9-15.2,2.5-30.7,4.1-46c1.6-15.8,5.9-31.1,15.5-44.1c16.2-21.9,40.8-34.3,67.9-35.4c28.1-1.1,56,9,80.4,22.2
							c8,4.3,15.8,9.2,23.3,14.3c-0.2-0.2,0.2-1.3,0-1.5c-43-29.5-106.9-54.7-153.8-19.1c-11.9,9-21.7,21.2-27.2,35.1
							c-5.6,14.1-6.4,29.6-7.3,44.5c-0.9,15.7-2,31.6-8,46.3c-5.5,13.4-15.1,25.5-26.9,34c-22.5,16.2-51.8,16.6-77.8,10.6
							c-14.2-3.3-27.6-8.9-39.9-16.7c-12-7.6-22.7-17.2-32.7-27.3c-20.3-20.7-37.4-44.3-57.8-64.9c-9.3-9.3-19.4-18-31.2-24
							c-11.5-5.8-24.2-8-37-7.1C6.1,56-3.1,58.5-11.9,61.6C-12.1,61.7-11.8,63-11.9,63.1L-11.9,63.1L-11.9,63.1z"/>
						
							<linearGradient id="SVGID_00000002354047954266709180000012503155955430030471_" gradientUnits="userSpaceOnUse" x1="8.0223" y1="-73.4953" x2="366.0223" y2="118.5047">
							<stop  offset="0" style="stop-color:#5A6862"/>
							<stop  offset="0.2196" style="stop-color:#52625E"/>
							<stop  offset="0.5592" style="stop-color:#989079"/>
							<stop  offset="1" style="stop-color:#52625E"/>
						</linearGradient>
						<path style="fill:url(#SVGID_00000002354047954266709180000012503155955430030471_);" d="M-10.8,93.3
							C2.9,83.3,18.8,77.4,35.9,78c15.2,0.5,29.7,6.4,42.4,14.4c11.9,7.5,22.4,17.2,32.9,26.4c11.1,9.6,22.2,19.3,33.8,28.5
							c24.2,19.1,50.8,35.8,80.9,43.6c27.5,7.1,61.5,9.9,84.1-10.7c11.5-10.5,18.5-26.3,20-41.6c1.2-12.1-1-24.4-3.3-36.2
							c-3.4-17.5-7-35-2.1-52.6c3.8-13.7,12.6-25.8,23.3-35c18.7-16.2,43.8-21.9,68-21.6c26.5,0.3,52.8,7.6,76.9,18.5
							c6.9,3.1,13.7,6.7,20.3,10.5c-0.2-0.1,0.2-1.4,0-1.5C490,7.1,464.6-2.4,438.3-6.5c-24.5-3.8-50.6-2.7-73.2,8.3
							c-10.9,5.3-20.4,13.1-28,22.5c-9.8,12.2-14.9,26.8-15.2,42.4c-0.2,13.2,2.5,26.1,5.1,38.9c1.5,7.9,2.9,15.8,3.2,23.8
							c0.4,9.3-1.7,18.4-5.2,27c-5.5,13.8-15.6,25.2-29.1,31.6c-13,6.2-28,7.2-42.2,6.1c-31.8-2.4-61.3-15.1-87.5-32.7
							c-24.5-16.4-45.9-36.6-68.4-55.5c-11.3-9.5-22.9-18.2-36.6-23.8c-14.2-5.7-29.8-7.3-44.8-3.6c-9.8,2.5-19,7.3-27.2,13.3
							C-11.1,92-10.6,93.1-10.8,93.3L-10.8,93.3z"/>
						
							<linearGradient id="SVGID_00000016796609416631952390000013463093654876166533_" gradientUnits="userSpaceOnUse" x1="6.503" y1="-70.6624" x2="364.503" y2="121.3376">
							<stop  offset="0" style="stop-color:#5A6862"/>
							<stop  offset="0.2196" style="stop-color:#52625E"/>
							<stop  offset="0.5592" style="stop-color:#989079"/>
							<stop  offset="1" style="stop-color:#52625E"/>
						</linearGradient>
						<path style="fill:url(#SVGID_00000016796609416631952390000013463093654876166533_);" d="M-9.7,123.4
							c8.2-11,19.1-19.2,32.1-23.4c11.7-3.8,24.4-4.1,36.4-2.3c24.9,3.8,45.7,18.8,66.6,31.9c27.5,17.2,55.4,34.2,85.7,46.4
							c15.3,6.2,31.2,10.8,47.6,13.5c14,2.4,28.7,3.2,42.7,0.2c12.1-2.6,22.9-8.9,30.2-19c7.8-10.8,10.6-24.2,9.9-37.4
							c-0.7-12.7-6.3-24.6-11.8-35.9c-5.9-12.1-12.1-24.2-14.8-37.6c-5.5-27.4,10.8-53.2,33.6-67.1c20.2-12.4,44.9-16.1,68.2-16
							c32.2,0.2,65.2,7.9,94.2,21.9c-0.2-0.1,0.2-1.4,0-1.5C489-13.3,465.1-20,441-23c-24.2-3-49.5-2.4-72.8,5.3
							c-22.1,7.3-42.1,22.6-50.6,44.8c-4.2,10.9-4.8,22.9-2.7,34.3c2.5,13.3,8.9,25.5,14.8,37.6c5.7,11.8,11.3,24.1,11.8,37.4
							c0.6,15.9-6.4,32.5-19,42.4c-10,7.9-23,10.7-35.5,11.3c-15.3,0.7-30.7-1.9-45.5-5.6c-32.3-8-62.3-23.8-90.7-40.8
							c-13-7.8-25.8-15.9-38.7-23.9c-10.3-6.4-20.6-13.1-31.8-17.6c-14.5-5.9-30.7-8.5-46.3-6.3C16.3,98.3,0.9,107.7-9.7,122
							C-10,122.3-9.5,123.1-9.7,123.4L-9.7,123.4z"/>
						
							<linearGradient id="SVGID_00000134941331716598004560000002285669843507439791_" gradientUnits="userSpaceOnUse" x1="4.935" y1="-67.7388" x2="362.935" y2="124.2612">
							<stop  offset="0" style="stop-color:#5A6862"/>
							<stop  offset="0.2196" style="stop-color:#52625E"/>
							<stop  offset="0.5592" style="stop-color:#989079"/>
							<stop  offset="1" style="stop-color:#52625E"/>
						</linearGradient>
						<path style="fill:url(#SVGID_00000134941331716598004560000002285669843507439791_);" d="M-8.6,153.6
							c16.9-43.5,70.3-47.9,108.9-34.1c27.5,9.8,53.8,23.2,80.6,34.7c30.3,13,61.5,25,94.2,30.6c23.3,4,53.9,5.9,71-13.8
							c7.9-9.1,11.1-21.4,11-33.3c-0.2-12.7-5.8-24.2-12.9-34.4c-13.7-19.8-33.9-36.9-38.9-61.5c-5.1-25.2,11.1-49.1,31.5-62.2
							c19.1-12.2,42.4-17.1,64.8-18.9c24.1-1.9,48.6-0.1,72.2,4.7c12,2.4,23.8,5.7,35.2,10.1c-0.2-0.1,0.2-1.4,0-1.5
							c-20.9-8.1-43.3-12.5-65.6-14.4c-24-2.1-48.6-1.3-72,4.4c-20.5,5-40.9,14.6-54.1,31.6c-7.8,10-12.7,22.6-12.9,35.3
							c-0.2,10.4,2.2,20,7,29.2c11.2,21.7,31.8,37.3,41.4,59.9c6.3,14.8,5.2,31.6-3.5,45.2c-6.1,9.6-16.1,15.4-27,18.2
							c-13,3.3-26.8,2.6-40,0.9c-15.9-2-31.5-6-46.8-10.9c-31.5-9.9-61.6-23.7-91.7-37.2c-12.6-5.7-25.3-11.4-38.2-16.3
							c-9-3.4-18-6.3-27.5-7.8c-20.4-3.1-42.8-1.3-60.9,9.2c-12,6.9-20.8,17.9-25.8,30.7C-8.8,152.5-8.5,153.2-8.6,153.6L-8.6,153.6
							z"/>
						
							<linearGradient id="SVGID_00000008114821942146083860000002237915827490793396_" gradientUnits="userSpaceOnUse" x1="3.3975" y1="-64.872" x2="361.3975" y2="127.128">
							<stop  offset="0" style="stop-color:#5A6862"/>
							<stop  offset="0.2196" style="stop-color:#52625E"/>
							<stop  offset="0.5592" style="stop-color:#989079"/>
							<stop  offset="1" style="stop-color:#52625E"/>
						</linearGradient>
						<path style="fill:url(#SVGID_00000008114821942146083860000002237915827490793396_);" d="M-7.5,183.7
							C-5.7,172.4-1.4,161.8,6,153c6.5-7.8,15.2-13.6,24.4-17.9c16.8-7.7,35.8-10.3,54.2-10.4c15.3,0,30.1,3.1,44.8,7.2
							c20.1,5.5,39.9,12.4,59.6,19.1c21.5,7.2,43,14.5,64.9,20.5c19.4,5.4,39.4,10,59.6,11.2c14.8,0.8,31.2-0.2,43.9-8.9
							c12.2-8.3,17.4-23.3,17.3-37.6c-0.2-18.6-11.9-33.2-24.9-45.4c-14.3-13.4-30.8-24.7-42.9-40.2c-5.6-7.2-9.9-15.3-11.6-24.3
							c-1.9-9.9,0.1-20.5,3.9-29.8c7-16.9,21.8-28.8,37.9-36.7c19-9.2,40.2-13.5,61-15.7c21.9-2.3,44-2.1,65.9,0.2
							c14.5,1.5,29,3.9,43,8c-0.1,0,0.1-1.4,0-1.5c-18.5-5.3-37.8-7.9-57-9.1c-22.1-1.4-44.5-0.6-66.3,2.9
							c-35.9,5.8-79.8,21.7-87.9,61.8c-1.5,7.5-1.7,15.5-0.1,23c1.9,8.9,6.6,17,12.3,24c12.2,15.3,28.8,26.6,43,40
							c13.9,13.2,26,29.9,23,50.1c-2.2,14.7-10.6,27-24.4,32.9c-14.9,6.4-32.5,5.5-48.2,3.6c-20.9-2.6-41.5-8.1-61.7-14.1
							c-21.7-6.5-43.1-13.9-64.6-21.1c-18.8-6.3-37.7-12.7-57.1-17.3c-14.6-3.5-29-4.8-44-3.9c-19.2,1.2-39.1,5.6-55.3,16.5
							C4.2,149.9-4.8,165-7.5,182.2C-7.6,182.7-7.4,183.2-7.5,183.7L-7.5,183.7z"/>
						
							<linearGradient id="SVGID_00000005265049855792080460000001953221803465388938_" gradientUnits="userSpaceOnUse" x1="-36.7528" y1="9.9916" x2="321.2472" y2="201.9916">
							<stop  offset="0" style="stop-color:#5A6862"/>
							<stop  offset="0.2196" style="stop-color:#52625E"/>
							<stop  offset="0.5592" style="stop-color:#989079"/>
							<stop  offset="1" style="stop-color:#52625E"/>
						</linearGradient>
						<path style="fill:url(#SVGID_00000005265049855792080460000001953221803465388938_);" d="M126.4,81.6
							c-4.3-3.5-3.7-8.3-3.7-8.3v0.2h-1.4l-6.9,26.2c-0.9-1.2-2.5-2-4.5-2c-3.7,0-7.3,2.4-8.1,5.4c-0.8,3,1.6,5.2,5.2,5.2
							c6.6,0,8.6-5.7,8.6-5.7l6.1-24.3c0.5,1.3,1.5,2.9,3.6,5c4.3,4-0.8,8.2-0.8,8.2C128.6,89.8,130.6,84.9,126.4,81.6L126.4,81.6z"
							/>
						<g>
							
								<linearGradient id="SVGID_00000155864877548496381720000016719009611796652942_" gradientUnits="userSpaceOnUse" x1="-37.279" y1="10.9727" x2="320.721" y2="202.9727">
								<stop  offset="0" style="stop-color:#5A6862"/>
								<stop  offset="0.2196" style="stop-color:#52625E"/>
								<stop  offset="0.5592" style="stop-color:#989079"/>
								<stop  offset="1" style="stop-color:#52625E"/>
							</linearGradient>
							<path style="fill:url(#SVGID_00000155864877548496381720000016719009611796652942_);" d="M173.9,112.5
								c-3.5-1-4.6-4.3-4.6-4.3V108l-0.8,0.4l2.9,17.9c-0.9-0.5-2-0.4-3.2,0.1c-2.2,1-3.7,3.4-3.4,5.5c0.3,2,2.3,2.8,4.6,1.8
								c3.9-1.7,3.7-5.7,3.7-5.7l-2.8-16.3c0.6,0.7,1.7,1.4,3.5,2c3.7,1.3,1.7,5.2,1.7,5.2C177.4,116.9,177.3,113.5,173.9,112.5
								L173.9,112.5z"/>
						</g>
						
							<linearGradient id="SVGID_00000171694243763850383560000017677770824923506323_" gradientUnits="userSpaceOnUse" x1="-49.1828" y1="33.1684" x2="308.8171" y2="225.1684">
							<stop  offset="0" style="stop-color:#5A6862"/>
							<stop  offset="0.2196" style="stop-color:#52625E"/>
							<stop  offset="0.5592" style="stop-color:#989079"/>
							<stop  offset="1" style="stop-color:#52625E"/>
						</linearGradient>
						<path style="fill:url(#SVGID_00000171694243763850383560000017677770824923506323_);" d="M154.1,137.6c2.2-1.6,3.3-4.7,0.5-7
							c-3.3-2.7-2.6-6.8-2.6-6.9v-0.3h-1.7l-5.3,20.7c-0.7-0.9-1.9-1.4-3.5-1.4c-2.8,0-5.6,2-6.3,4.3c-0.6,2.4,1.2,4.1,4,4.1
							c5.4,0,6.6-4.4,6.6-4.4l1.8-7.5c0.4,1,1.1,2.2,2.8,3.8c3.3,3.1-0.5,6.4-0.5,6.4c2.5-1.1,4.1-3.9,2.6-6.3
							C154.4,141.9,155.3,139.6,154.1,137.6L154.1,137.6z M153.4,131.9c2.2,2,1.3,4.1,0.4,5.3c-0.3-0.3-0.6-0.7-1-1
							c-3-2.4-2.9-5.9-2.8-6.6l0.4-1.6C150.9,129.1,151.7,130.4,153.4,131.9L153.4,131.9z M152.4,142.9c-0.3-0.3-0.6-0.7-1-1
							c-2.8-2.3-2.9-5.6-2.8-6.4l0.4-1.7c0.4,1,1.2,2.2,2.9,3.8C154.1,139.6,153.2,141.7,152.4,142.9L152.4,142.9z"/>
						
							<linearGradient id="SVGID_00000031928309551878696680000003514609003932460184_" gradientUnits="userSpaceOnUse" x1="-30.5485" y1="-1.5769" x2="327.4515" y2="190.4231">
							<stop  offset="0" style="stop-color:#5A6862"/>
							<stop  offset="0.2196" style="stop-color:#52625E"/>
							<stop  offset="0.5592" style="stop-color:#989079"/>
							<stop  offset="1" style="stop-color:#52625E"/>
						</linearGradient>
						<path style="fill:url(#SVGID_00000031928309551878696680000003514609003932460184_);" d="M102.7,64.6l0.3-1.5h-3l0.9-3.7h-1.2
							l-0.9,3.7h-3.6l0.6-2.2h-1.2L94,63.1h-3l-0.3,1.5h3L92.8,69h-3l-0.2,0.7h3l-1.1,3.7h1.2l1.1-3.7h3.6L96.6,72h1.2l0.8-2.2h3
							l0.2-0.7h-3l0.9-4.4h3V64.6z M97.6,69H94l0.9-4.4h3.6L97.6,69z"/>
						
							<linearGradient id="SVGID_00000054262916688831594670000011312807037046116481_" gradientUnits="userSpaceOnUse" x1="-62.989" y1="58.9112" x2="295.011" y2="250.9112">
							<stop  offset="0" style="stop-color:#5A6862"/>
							<stop  offset="0.2196" style="stop-color:#52625E"/>
							<stop  offset="0.5592" style="stop-color:#989079"/>
							<stop  offset="1" style="stop-color:#52625E"/>
						</linearGradient>
						<path style="fill:url(#SVGID_00000054262916688831594670000011312807037046116481_);" d="M112.7,147.6c0,0-0.8,1.9-2.4,3.5
							c0-0.3,0-0.5-0.1-0.8c-0.3-1.3-1.5-1.8-2.6-1.2s-1.7,2.1-1.4,3.4c0,0.1,0.1,0.2,0.1,0.3c0.1,0.3,0.2,0.6,0.5,0.9
							c0.3,0.3,1.1,0.9,2.5-0.1c1.5-1.1,2.5-2.4,3.3-3.5l-0.2,11.7l1.1-0.2l0.3-16.7L112.7,147.6L112.7,147.6z"/>
						
							<linearGradient id="SVGID_00000136372906967556560480000001919674233300791701_" gradientUnits="userSpaceOnUse" x1="-55.4433" y1="44.8416" x2="302.5567" y2="236.8416">
							<stop  offset="0" style="stop-color:#5A6862"/>
							<stop  offset="0.2196" style="stop-color:#52625E"/>
							<stop  offset="0.5592" style="stop-color:#989079"/>
							<stop  offset="1" style="stop-color:#52625E"/>
						</linearGradient>
						<path style="fill:url(#SVGID_00000136372906967556560480000001919674233300791701_);" d="M198.3,163.2c-2.4-0.7-5.2,0-6.6,2.1
							l-0.3-0.1l0.1-0.2l0.1,0.1l-10.2,16.5l-14.2-2.5l8.9-14.2c0.4,0.9,1.3,1.8,2.6,2.2c2.4,0.8,5.3-0.1,6.5-2s0.1-3.9-2.4-4.6
							c-2.4-0.7-5.2,0-6.5,2h-0.1l0.1-0.2l0.1-0.2L165,180.3l-0.2,0.5l16.6,3.1l1.3-2.1l8.8-14.1c0.4,1,1.3,1.8,2.6,2.2
							c2.4,0.8,5.3-0.1,6.5-1.9C201.8,166,200.8,164,198.3,163.2L198.3,163.2z"/>
						
							<linearGradient id="SVGID_00000126322132214413677620000016523841312517502902_" gradientUnits="userSpaceOnUse" x1="-41.7491" y1="19.3076" x2="316.2509" y2="211.3076">
							<stop  offset="0" style="stop-color:#5A6862"/>
							<stop  offset="0.2196" style="stop-color:#52625E"/>
							<stop  offset="0.5592" style="stop-color:#989079"/>
							<stop  offset="1" style="stop-color:#52625E"/>
						</linearGradient>
						<path style="fill:url(#SVGID_00000126322132214413677620000016523841312517502902_);" d="M247.8,178.2v0.2l0,0l6.6-24.8h0.1
							l0.2-0.4l-19.9,2.4l-0.7,3l-5,19.2c-0.8-1-2.1-1.6-3.7-1.6c-3,0-6,2-6.7,4.6c-0.7,2.5,1.3,4.9,4.3,4.9s5.9-1.2,6.7-4.1h-0.1
							v-0.3v-0.2V181l5.1-19.6l17.1-2.3l-4.3,16.6c-0.8-1-2.1-1.6-3.7-1.6c-3,0-6,2-6.7,4.6c-0.7,2.5,1.3,4.2,4.3,4.2
							s5.9-1.2,6.7-4.9L247.8,178.2L247.8,178.2z M235.1,159.7l0.3-1.3l17.1-2.1l-0.3,1.2L235.1,159.7L235.1,159.7z"/>
						<g>
							
								<linearGradient id="SVGID_00000075842220133533211550000017233684622127592357_" gradientUnits="userSpaceOnUse" x1="-69.028" y1="70.1715" x2="288.972" y2="262.1714">
								<stop  offset="0" style="stop-color:#5A6862"/>
								<stop  offset="0.2196" style="stop-color:#52625E"/>
								<stop  offset="0.5592" style="stop-color:#989079"/>
								<stop  offset="1" style="stop-color:#52625E"/>
							</linearGradient>
							<path style="fill:url(#SVGID_00000075842220133533211550000017233684622127592357_);" d="M140.7,179.1L140.7,179.1l0.1,0.2
								l-4.9-11.9l0,0l-0.2-0.4l-7.4,7.1l0.6,1.4l4,9.3c-0.6-0.2-1.3,0-2,0.5c-1.2,0.9-1.8,2.7-1.3,3.9s2,1.5,3.2,0.6
								s1.8-2.6,1.4-3.8l0,0h-0.1v-0.1l0,0l-4-9.5l6.2-6.2l3.4,8c-0.6-0.2-1.3,0-2,0.5c-1.2,0.9-1.8,2.7-1.3,3.9s1.9,1.4,3.1,0.4
								c1.2-0.9,1.8-2.5,1.2-4V179.1L140.7,179.1z M129.7,175.5l-0.3-0.6l6.2-6.2l0.3,0.6L129.7,175.5L129.7,175.5z"/>
						</g>
						<g>
							
								<linearGradient id="SVGID_00000045614479382276507240000014192413264521498752_" gradientUnits="userSpaceOnUse" x1="-32.9956" y1="2.986" x2="325.0044" y2="194.986">
								<stop  offset="0" style="stop-color:#5A6862"/>
								<stop  offset="0.2196" style="stop-color:#52625E"/>
								<stop  offset="0.5592" style="stop-color:#989079"/>
								<stop  offset="1" style="stop-color:#52625E"/>
							</linearGradient>
							<path style="fill:url(#SVGID_00000045614479382276507240000014192413264521498752_);" d="M222.3,126.3
								c-1.5,0.8-2.6,2.3-2.2,4.2l0,0l-0.3-0.3h-0.2l0,0l2.6,11.2l-8,5.4l-1.9-9.5c0.6,0.3,1.5,0.3,2.3-0.1c1.5-0.8,2.6-2.6,2.3-4
								c-0.3-1.5-1.7-1.9-3.3-1.1c-1.5,0.8-2.5,2.5-2.2,4.1h0.1V136v0.1l3,14.4v0.2l9.5-6.3l-0.4-1.7l-2.3-11
								c0.6,0.3,1.4,0.3,2.3-0.1c1.5-0.8,2.6-2.5,2.3-3.9C225.3,126,223.8,125.6,222.3,126.3L222.3,126.3z M222.5,142.2l0.2,0.8
								l-8.1,5.4l-0.1-0.7L222.5,142.2L222.5,142.2z"/>
						</g>
						
							<linearGradient id="SVGID_00000181075376012869179690000005324096845738251654_" gradientUnits="userSpaceOnUse" x1="-53.3331" y1="40.9069" x2="304.6669" y2="232.9069">
							<stop  offset="0" style="stop-color:#5A6862"/>
							<stop  offset="0.2196" style="stop-color:#52625E"/>
							<stop  offset="0.5592" style="stop-color:#989079"/>
							<stop  offset="1" style="stop-color:#52625E"/>
						</linearGradient>
						<path style="fill:url(#SVGID_00000181075376012869179690000005324096845738251654_);" d="M75.8,103.6
							c-0.5-1.3-1.1-2.6-1.9-3.8c-0.7-1.2-1.5-2.3-2.5-3.3c-3.6-4-8.5-6.8-13.6-7.4C56.5,89,55.2,89,54,89c-1.3,0.1-2.5,0.3-3.7,0.7
							c-0.3,0.1-0.6,0.2-0.9,0.3c-0.9-3.8-1.9-7.7-2.8-11.6c3-4.1,5.9-8.5,8.3-13.4c1.5-3.3,2.9-6.8,3.5-10.7
							c0.3-1.9,0.4-3.8,0.4-5.7c0-0.9-0.1-1.8-0.2-2.8l-0.1-1.2l-0.2-1.4c-0.5-3.6-1.4-7.1-2.8-10.4c-1.4-3.4-3.2-6.6-5.8-9.4
							c-0.7-0.7-1.4-1.4-2.2-2s-1.8-1.2-2.9-1.6c-0.6-0.2-1.2-0.3-1.9-0.4c-0.3,0-0.7,0-1.1,0c-0.1,0-0.1,0-0.4,0.1H41
							c-0.2,0-0.5,0.1-0.7,0.2c-0.8,0.3-1.4,0.8-1.9,1.3s-0.8,1-1.1,1.5c-1,2-1.3,3.8-1.5,5.6c-0.2,1.8-0.2,3.5-0.2,5.2
							c0.2,6.8,1.1,13.3,2.2,19.7c1,5.6,2.1,11.1,3.3,16.5c-1.6,2.3-3.3,4.7-5,7c-1,1.3-1.9,2.6-2.9,4s-2,2.9-2.9,4.4
							c-1.8,3-3.3,6.2-4.4,9.5c-1.2,3.3-1.9,6.7-2.2,10.2c-0.3,3.5-0.2,7,0.6,10.3c0.2,0.8,0.4,1.7,0.6,2.5c0.3,0.8,0.5,1.6,0.9,2.4
							c0.6,1.6,1.5,3.1,2.4,4.5c1.9,2.8,4.4,5.2,7.2,6.8l1.1,0.6l1.1,0.5c0.7,0.4,1.5,0.6,2.3,0.9l1.1,0.3l0.6,0.2l0.6,0.1l1.1,0.3
							l1.1,0.2c3,0.6,6.1,0.6,9.1,0.3c2.1-0.2,4.1-0.7,6.1-1.4c0.4,1.4,0.8,2.7,1.2,4c0.7,2.4,1.3,4.7,1.9,7.1
							c0.5,2.3,1,4.6,1.3,6.8c0.1,1.1,0.2,2.2,0.2,3.3c0,0.3,0,0.6,0,0.8v0.8c-0.1,0.5-0.1,1-0.2,1.5c-0.4,2-1.3,3.8-2.4,5.3
							c-1.2,1.5-2.6,2.6-4.2,3.2l-0.6,0.2l-0.1,0.1h-0.1h-0.1l-0.3,0.1c-0.4,0.1-0.8,0.2-1.2,0.3c-0.8,0.1-1.6,0.2-2.4,0.1
							c-0.8-0.1-1.5-0.2-2.2-0.4s-1.3-0.5-1.9-0.9c-1.1-0.7-1.9-1.7-2.4-2.7c-0.3-0.5-0.4-1-0.5-1.6c-0.1-0.3-0.1-0.5-0.1-0.8v-0.4
							c0,0.1,0,0,0,0v-0.1v-0.1v-0.2c0-0.4,0-0.9,0.1-1.3c0.1-0.4,0.2-0.8,0.3-1.2c0.2-0.5,0.4-0.8,0.6-1.2c1.2,0.6,2.5,0.9,3.9,0.7
							c3.5-0.5,5.9-3.8,5.4-7.3s-3.7-6-7.2-5.6c-2.5,0.3-4.9,1.4-6.9,4.2c-1.6,2.2-2.7,5.3-2.6,8.3c0,0.8,0.1,1.5,0.2,2.3
							c0.1,0.8,0.3,1.5,0.6,2.4c0.5,1.4,1.4,3,2.6,4.4c1.2,1.3,2.8,2.5,4.5,3.2c0.9,0.4,1.8,0.6,2.7,0.8s1.9,0.2,2.9,0.2
							s2-0.2,2.9-0.4c0.5-0.1,1-0.3,1.5-0.4l0.3-0.1l0.2-0.1l0.2-0.1l0.7-0.3c0.9-0.5,1.8-1,2.6-1.7s1.6-1.5,2.2-2.4
							c1.3-1.8,2.2-3.9,2.5-6.2c0.1-0.6,0.2-1.2,0.2-1.7v-0.8c0-0.3,0-0.6,0-0.9c0-1.1-0.1-2.3-0.3-3.4c-0.6-4.6-1.9-9.3-3.3-14.1
							c-0.4-1.4-0.8-2.8-1.2-4.2c3.1-1.2,6-3,8.4-5.2c2.2-2,4-4.3,5.4-7c0.7-1.3,1.2-2.7,1.6-4.2c0.2-0.7,0.3-1.4,0.5-2.2
							c0.1-0.4,0.1-0.8,0.1-1.2c0-0.4,0.1-0.8,0.1-1.1l0.1-0.9v-1.2c0-0.7-0.1-1.5-0.3-2.2C76.8,106.3,76.4,104.9,75.8,103.6
							L75.8,103.6z M42,24.4L42,24.4L42,24.4z M41.9,24.5L41.9,24.5C42,24.5,41.9,24.5,41.9,24.5z M41.5,52.5
							c-0.5-3.2-0.9-6.3-1.2-9.5s-0.5-6.4-0.4-9.6c0-1.6,0.1-3.1,0.4-4.6c0.2-1.5,0.6-3,1.1-3.9c0.2-0.3,0.4-0.5,0.4-0.5h0.1
							c-0.2,0,0,0-0.1,0c0,0,0.1,0,0.2,0c0.1,0,0.3,0.1,0.5,0.2c0.9,0.4,1.9,1.3,2.7,2.4c1.7,2.2,2.9,5.1,3.6,8
							c0.8,2.9,1.2,6,1.4,9.1l0.1,1.1v1.3c0,0.7,0,1.5,0,2.2c-0.1,1.5-0.2,2.9-0.6,4.2c-0.6,2.7-1.8,5.4-3.2,8.1
							c-0.9,1.6-1.9,3.2-2.9,4.7C43,61.3,42.2,57,41.5,52.5L41.5,52.5z M53.2,132.1c-1.3,0.2-2.7,0.2-4.1,0.1
							c-1.4-0.1-2.8-0.3-4.1-0.6l-1-0.2l-1-0.3l-0.5-0.2l-0.5-0.2l-1-0.4c-1.2-0.5-2.4-1.2-3.6-2c-1.1-0.8-2.2-1.7-3-2.8
							c-0.9-1-1.7-2.2-2.3-3.4c-0.6-1.2-1.1-2.5-1.5-3.9c-0.2-0.7-0.3-1.4-0.5-2c-0.1-0.7-0.2-1.4-0.2-2.1
							c-0.4-5.6,1.1-11.4,3.6-16.7c1.3-2.7,2.8-5.2,4.5-7.7c0.8-1.2,1.7-2.5,2.7-3.6c1-1.3,2-2.6,3-3.8c0.1-0.2,0.3-0.3,0.4-0.5
							c0.8,3.2,1.6,6.4,2.5,9.5c-0.1,0.1-0.2,0.1-0.3,0.2L45.5,92c-0.4,0.3-0.9,0.6-1.3,0.9c-3.3,2.6-5.6,6.1-6.6,9.4
							s-1,6.4-0.4,8.9s1.7,4.5,2.8,5.8c1.2,1.3,2.4,1.9,3.2,2.2c0.2,0.1,0.4,0.1,0.5,0.2c0.2,0,0.3,0.1,0.4,0.1
							c0.2,0,0.3,0.1,0.3,0.1s-0.1-0.1-0.3-0.2s-0.4-0.3-0.7-0.6c-0.5-0.6-1.3-1.5-1.7-2.8c-0.5-1.3-0.8-3.1-0.6-5.1
							c0.1-2,0.8-4.2,1.9-6.3c1.2-2.1,3-4,5.4-5.4c0,0,0.1,0,0.1-0.1c0.8,2.6,1.5,5.2,2.3,7.8c1.7,5.5,3.4,10.8,5.1,15.9
							c0.8,2.6,1.7,5.1,2.5,7.5c0,0.1,0.1,0.3,0.1,0.4C57,131.4,55.1,131.9,53.2,132.1L53.2,132.1z M70.6,112.4
							c0.5,4-0.7,8.8-3.9,12.6c-1.7,2-3.9,3.8-6.4,5c-2.2-7.6-4.5-15.5-6.8-23.9c-0.7-2.7-1.5-5.4-2.2-8.2l0,0
							c0.3-0.1,0.6-0.2,1-0.3c1.3-0.3,2.7-0.3,4.2,0c2.9,0.5,6.1,2.2,8.7,4.7c1.3,1.3,2.5,2.8,3.4,4.5c0.5,0.8,0.9,1.7,1.2,2.7
							c0.2,0.5,0.3,0.9,0.4,1.4l0.1,0.4v0.2v0.1c0,0.1,0-0.1,0,0L70.6,112.4L70.6,112.4z"/>
					</g>
				</g>
			</g>
		</g>
	</g>
</g>
</svg>
