<?xml version="1.0" encoding="utf-8"?>
<!-- Generator: Adobe Illustrator 26.3.1, SVG Export Plug-In . SVG Version: 6.00 Build 0)  -->
<svg version="1.1" id="圖層_1" xmlns="http://www.w3.org/2000/svg" xmlns:xlink="http://www.w3.org/1999/xlink" x="0px" y="0px"
	 viewBox="0 0 21 22" style="enable-background:new 0 0 21 22;" xml:space="preserve">
<style type="text/css">
	.st0{fill:#FFFFFF;}
</style>
<path class="st0" d="M3,22c-0.8,0-1.6-0.3-2.2-0.8c-0.6-0.6-0.9-1.2-0.9-2v-3.4h3.7V0l1.7,1.6L7.1,0l1.7,1.6L10.6,0l1.7,1.6L14.1,0
	l1.7,1.6L17.5,0l1.7,1.6L21,0v19.1c0,0.8-0.3,1.5-0.9,2C19.5,21.7,18.8,22,18,22H3z M18,20.4c0.4,0,0.7-0.1,0.9-0.3
	c0.2-0.2,0.4-0.5,0.4-0.9V2.8H5.4v12.9h11.3v3.4c0,0.4,0.1,0.7,0.4,0.9C17.3,20.2,17.6,20.4,18,20.4z M6.9,7.1V5.4h6.9v1.6H6.9z
	 M6.9,10.8V9.1h6.9v1.6H6.9z M16.6,7.1c-0.2,0-0.4-0.1-0.6-0.2c-0.2-0.2-0.3-0.4-0.3-0.6s0.1-0.4,0.3-0.6c0.2-0.2,0.4-0.2,0.6-0.2
	s0.4,0.1,0.6,0.2c0.2,0.2,0.3,0.4,0.3,0.6s-0.1,0.4-0.3,0.6C17,7,16.8,7.1,16.6,7.1z M16.6,10.6c-0.2,0-0.4-0.1-0.6-0.2
	c-0.2-0.2-0.3-0.4-0.3-0.6s0.1-0.4,0.3-0.6C16.1,9.1,16.3,9,16.6,9s0.4,0.1,0.6,0.2c0.2,0.2,0.3,0.4,0.3,0.6s-0.1,0.4-0.3,0.6
	C17,10.6,16.8,10.6,16.6,10.6z M3,20.4h11.9v-3H1.7v1.8c0,0.4,0.1,0.7,0.4,0.9C2.3,20.2,2.6,20.4,3,20.4z M1.7,20.4v-3V20.4z"/>
</svg>
