<?xml version="1.0" encoding="utf-8"?>
<!-- Generator: Adobe Illustrator 26.3.1, SVG Export Plug-In . SVG Version: 6.00 Build 0)  -->
<svg version="1.1" id="圖層_1" xmlns="http://www.w3.org/2000/svg" xmlns:xlink="http://www.w3.org/1999/xlink" x="0px" y="0px"
	 viewBox="0 0 22 22" style="enable-background:new 0 0 22 22;" xml:space="preserve">
<style type="text/css">
	.st0{fill:#FFFFFF;}
</style>
<path class="st0" d="M6.6,22c-0.6,0-1-0.2-1.4-0.6C4.8,21,4.6,20.6,4.6,20s0.2-1,0.6-1.4C5.6,18.2,6,18,6.6,18c0.5,0,1,0.2,1.4,0.6
	C8.4,19,8.6,19.5,8.6,20S8.4,21,8,21.4C7.6,21.8,7.2,22,6.6,22z M17.8,22c-0.6,0-1-0.2-1.4-0.6C16,21,15.8,20.6,15.8,20
	s0.2-1,0.6-1.4c0.4-0.4,0.9-0.6,1.4-0.6c0.5,0,1,0.2,1.4,0.6c0.4,0.4,0.6,0.9,0.6,1.4s-0.2,1-0.6,1.4C18.8,21.8,18.3,22,17.8,22z
	 M5.1,3.8l3.1,6.3h8.1l3.5-6.3H5.1z M4.3,2.2h16.5c0.6,0,1,0.2,1.1,0.5s0.1,0.8-0.2,1.2L18,10.6c-0.2,0.3-0.4,0.6-0.8,0.8
	c-0.3,0.2-0.7,0.3-1.1,0.3H7.6l-1.6,2.9h13.7v1.7H6.3c-0.8,0-1.3-0.3-1.7-0.8c-0.3-0.5-0.3-1.1,0-1.7l1.8-3.2L2.2,1.7H0V0h3.3
	L4.3,2.2z M8.2,10.1h8.1H8.2z"/>
</svg>
