<?xml version="1.0" encoding="utf-8"?>
<!-- Generator: Adobe Illustrator 26.3.1, SVG Export Plug-In . SVG Version: 6.00 Build 0)  -->
<svg version="1.1" id="圖層_1" xmlns="http://www.w3.org/2000/svg" xmlns:xlink="http://www.w3.org/1999/xlink" x="0px" y="0px"
	 viewBox="0 0 22 22" style="enable-background:new 0 0 22 22;" xml:space="preserve">
<style type="text/css">
	.st0{fill:#FFFFFF;}
</style>
<path class="st0" d="M11,15.2c1.2,0,2.2-0.4,3-1.2c0.8-0.8,1.2-1.8,1.2-3S14.8,8.8,14,8c-0.8-0.8-1.8-1.2-3-1.2S8.8,7.2,8,8
	c-0.8,0.8-1.2,1.8-1.2,3s0.4,2.2,1.2,3C8.8,14.8,9.8,15.2,11,15.2z M11,13.8c-0.8,0-1.4-0.3-2-0.8c-0.5-0.5-0.8-1.2-0.8-2
	S8.5,9.6,9,9c0.5-0.5,1.2-0.8,2-0.8s1.4,0.3,2,0.8c0.5,0.5,0.8,1.2,0.8,2s-0.3,1.4-0.8,2C12.4,13.5,11.8,13.8,11,13.8z M11,18.5
	c-2.4,0-4.6-0.7-6.6-2.1S1,13.2,0,11c1-2.2,2.4-4,4.4-5.4S8.6,3.5,11,3.5s4.6,0.7,6.6,2.1S21,8.8,22,11c-1,2.2-2.4,4-4.4,5.4
	S13.4,18.5,11,18.5z M11,17c2,0,3.9-0.5,5.6-1.6s3-2.5,3.9-4.4c-0.9-1.8-2.2-3.3-3.9-4.4S13,5,11,5S7.1,5.5,5.4,6.6s-3,2.5-3.9,4.4
	c0.9,1.8,2.2,3.3,3.9,4.4S9,17,11,17z"/>
</svg>
