<?xml version="1.0" encoding="utf-8"?>
<!-- Generator: Adobe Illustrator 26.3.1, SVG Export Plug-In . SVG Version: 6.00 Build 0)  -->
<svg version="1.1" id="圖層_1" xmlns="http://www.w3.org/2000/svg" xmlns:xlink="http://www.w3.org/1999/xlink" x="0px" y="0px"
	 viewBox="0 0 22 22" style="enable-background:new 0 0 22 22;" xml:space="preserve">
<style type="text/css">
	.st0{fill:#FFFFFF;}
</style>
<path class="st0" d="M4.9,20.2v-1.8h8.9c1.4,0,2.7-0.5,3.7-1.4c1-1,1.5-2.1,1.5-3.5s-0.5-2.6-1.5-3.5c-1-1-2.3-1.4-3.7-1.4h-9
	l3.5,3.5l-1.3,1.3L1.2,7.5l5.7-5.7l1.3,1.3L4.7,6.6h9c1.9,0,3.6,0.7,5,2c1.4,1.3,2.1,2.9,2.1,4.8s-0.7,3.5-2.1,4.8
	c-1.4,1.3-3.1,2-5,2H4.9z"/>
</svg>
