<?xml version="1.0" encoding="utf-8"?>
<!-- Generator: Adobe Illustrator 26.3.1, SVG Export Plug-In . SVG Version: 6.00 Build 0)  -->
<svg version="1.1" id="圖層_1" xmlns="http://www.w3.org/2000/svg" xmlns:xlink="http://www.w3.org/1999/xlink" x="0px" y="0px"
	 viewBox="0 0 22 22" style="enable-background:new 0 0 22 22;" xml:space="preserve">
<style type="text/css">
	.st0{fill:#FFFFFF;}
</style>
<path class="st0" d="M20.4,21.7l-7.8-7.8c-0.6,0.5-1.3,0.9-2.1,1.2c-0.8,0.3-1.6,0.4-2.5,0.4c-2.1,0-3.9-0.7-5.4-2.2S0.3,10,0.3,7.9
	S1.1,4,2.6,2.6s3.3-2.2,5.4-2.2c2.1,0,3.9,0.7,5.4,2.2s2.2,3.3,2.2,5.4c0,0.8-0.1,1.7-0.4,2.5c-0.3,0.8-0.7,1.5-1.2,2.2l7.8,7.8
	L20.4,21.7z M7.9,13.7c1.6,0,3-0.6,4.1-1.7s1.7-2.5,1.7-4.1s-0.6-3-1.7-4.1S9.5,2.1,7.9,2.1c-1.6,0-3,0.6-4.1,1.7S2.1,6.3,2.1,7.9
	s0.6,3,1.7,4.1S6.3,13.7,7.9,13.7z"/>
</svg>
