<?xml version="1.0" encoding="utf-8"?>
<!-- Generator: Adobe Illustrator 26.3.1, SVG Export Plug-In . SVG Version: 6.00 Build 0)  -->
<svg version="1.1" id="圖層_1" xmlns="http://www.w3.org/2000/svg" xmlns:xlink="http://www.w3.org/1999/xlink" x="0px" y="0px"
	 viewBox="0 0 22 22" style="enable-background:new 0 0 22 22;" xml:space="preserve">
<style type="text/css">
	.st0{fill:#FFFFFF;}
</style>
<g>
	<path class="st0" d="M11.9,21.9c-0.2,0-0.4,0-0.6-0.1c-0.2-0.1-0.4-0.2-0.6-0.4L0.5,11.2c-0.2-0.2-0.3-0.4-0.4-0.6
		C0,10.4,0,10.2,0,10V1.6c0-0.5,0.2-0.9,0.5-1.2S1.2,0,1.6,0H10c0.2,0,0.4,0,0.7,0.1s0.4,0.2,0.6,0.4l10.2,10.2
		c0.4,0.4,0.5,0.8,0.5,1.2c0,0.4-0.2,0.9-0.5,1.2l-8.3,8.3c-0.1,0.1-0.3,0.3-0.5,0.3C12.4,21.9,12.2,21.9,11.9,21.9z M12,20.3
		l8.3-8.3L10,1.6H1.6V10L12,20.3z M4.5,5.9c0.4,0,0.7-0.1,1-0.4c0.3-0.3,0.4-0.6,0.4-1c0-0.4-0.1-0.7-0.4-1c-0.3-0.3-0.6-0.4-1-0.4
		s-0.7,0.1-1,0.4s-0.4,0.6-0.4,1c0,0.4,0.1,0.7,0.4,1C3.8,5.8,4.1,5.9,4.5,5.9z"/>
</g>
</svg>
