<svg width="25" height="26" viewBox="0 0 25 26" fill="none" xmlns="http://www.w3.org/2000/svg">
<path d="M22.9167 1.72522e-06C23.4722 1.77379e-06 23.9583 0.216671 24.375 0.650003C24.7917 1.08334 25 1.58889 25 2.16667L25 23.8333C25 24.4111 24.7917 24.9167 24.375 25.35C23.9583 25.7833 23.4722 26 22.9167 26L12.8125 26L12.8125 23.8333L22.9167 23.8333L22.9167 2.16667L12.8125 2.16667L12.8125 8.41884e-07L22.9167 1.72522e-06ZM6.04167 6.68056L7.53472 8.23333L3.99306 11.9167L16.1458 11.9167L16.1458 14.0833L4.0625 14.0833L7.60417 17.7667L6.11111 19.3194L-7.67696e-07 12.9639L6.04167 6.68056Z" fill="white"/>
</svg>
