<?xml version="1.0" encoding="utf-8"?>
<!-- Generator: Adobe Illustrator 26.3.1, SVG Export Plug-In . SVG Version: 6.00 Build 0)  -->
<svg version="1.1" id="圖層_1" xmlns="http://www.w3.org/2000/svg" xmlns:xlink="http://www.w3.org/1999/xlink" x="0px" y="0px"
	 viewBox="0 0 17 17" style="enable-background:new 0 0 17 17;" xml:space="preserve">
<style type="text/css">
	.st0{fill:#FFFFFF;}
</style>
<path class="st0" d="M8.5,8.2c-1.2,0-2.1-0.4-2.9-1.1c-0.7-0.8-1.1-1.8-1.1-3s0.4-2.2,1.1-3C6.4,0.4,7.3,0,8.5,0s2.1,0.4,2.9,1.1
	c0.7,0.8,1.1,1.8,1.1,3s-0.4,2.2-1.1,3C10.6,7.8,9.7,8.2,8.5,8.2z M0,17v-2.6c0-0.7,0.2-1.3,0.5-1.8c0.3-0.5,0.8-0.9,1.3-1.1
	c1.2-0.5,2.3-1,3.4-1.2C6.3,10,7.4,9.9,8.5,9.9s2.2,0.1,3.3,0.4c1.1,0.3,2.2,0.7,3.4,1.2c0.5,0.3,1,0.6,1.3,1.1
	c0.3,0.5,0.5,1.1,0.5,1.8V17H0z M1.6,15.4h13.8v-0.9c0-0.3-0.1-0.6-0.3-0.8c-0.2-0.3-0.4-0.5-0.6-0.6c-1.1-0.6-2.2-1-3.1-1.2
	c-0.9-0.2-1.9-0.3-2.9-0.3c-1,0-2,0.1-2.9,0.3s-2,0.6-3.1,1.2c-0.2,0.1-0.5,0.3-0.6,0.6c-0.2,0.3-0.2,0.5-0.2,0.8V15.4z M8.5,6.6
	c0.7,0,1.3-0.2,1.7-0.7c0.5-0.5,0.7-1.1,0.7-1.8c0-0.7-0.2-1.3-0.7-1.8c-0.5-0.5-1-0.7-1.7-0.7S7.2,1.9,6.8,2.3S6.1,3.4,6.1,4.1
	c0,0.7,0.2,1.3,0.7,1.8C7.2,6.3,7.8,6.6,8.5,6.6z"/>
</svg>
