<?xml version="1.0" encoding="utf-8"?>
<!-- Generator: Adobe Illustrator 26.3.1, SVG Export Plug-In . SVG Version: 6.00 Build 0)  -->
<svg version="1.1" id="圖層_1" xmlns="http://www.w3.org/2000/svg" xmlns:xlink="http://www.w3.org/1999/xlink" x="0px" y="0px"
	 viewBox="0 0 22 22" style="enable-background:new 0 0 22 22;" xml:space="preserve">
<style type="text/css">
	.st0{fill:#FFFFFF;}
</style>
<path class="st0" d="M17.4,21.1L10,13.6c-0.4,0.2-0.9,0.3-1.3,0.4c-0.4,0.1-0.9,0.1-1.4,0.1c-1.9,0-3.5-0.7-4.8-2s-2-2.9-2-4.8
	c0-0.6,0.1-1.2,0.2-1.7c0.2-0.6,0.4-1.1,0.7-1.6l4.2,4.2l2.7-2.5L4,1.5C4.5,1.2,5,1,5.6,0.8c0.6-0.2,1.1-0.2,1.7-0.2
	c1.9,0,3.5,0.7,4.9,2s2,3,2,4.9c0,0.5,0,0.9-0.1,1.4c-0.1,0.4-0.2,0.9-0.4,1.3l7.5,7.5c0.2,0.2,0.3,0.5,0.3,0.8
	c0,0.3-0.1,0.6-0.3,0.8l-2.2,2c-0.2,0.2-0.5,0.3-0.8,0.3C17.9,21.5,17.6,21.3,17.4,21.1z M18.2,19.5l1.2-1.2l-7.9-7.9
	C11.8,10,12,9.6,12.2,9c0.2-0.5,0.2-1.1,0.2-1.6c0-1.4-0.5-2.7-1.6-3.7S8.5,2.2,7.2,2.2l2.9,3c0.2,0.2,0.3,0.4,0.3,0.6
	c0,0.3-0.1,0.5-0.3,0.6l-3.8,3.6c-0.2,0.2-0.4,0.3-0.6,0.3c-0.3,0-0.5-0.1-0.6-0.3L2.2,7.3C2.3,8.8,2.8,10,3.8,11s2.2,1.4,3.5,1.4
	c0.5,0,1-0.1,1.5-0.2c0.5-0.2,1-0.4,1.4-0.7L18.2,19.5z"/>
</svg>
