<svg width="250" height="246" viewBox="0 0 250 246" fill="none" xmlns="http://www.w3.org/2000/svg">
<rect y="246" width="246" height="250" transform="rotate(-90 0 246)" fill="#BFBFBF"/>
<path d="M125 120.488C116.887 120.488 110.25 117.805 105.088 112.44C99.925 107.074 97.3437 100.176 97.3437 91.744C97.3437 83.3124 99.925 76.4139 105.088 71.0483C110.25 65.6828 116.887 63 125 63C133.112 63 139.75 65.6828 144.912 71.0483C150.075 76.4139 152.656 83.3124 152.656 91.744C152.656 100.176 150.075 107.074 144.912 112.44C139.75 117.805 133.112 120.488 125 120.488ZM66 182V163.987C66 159.133 67.1677 154.981 69.5031 151.531C71.8385 148.082 74.85 145.463 78.5375 143.675C86.7729 139.842 94.6703 136.968 102.23 135.052C109.789 133.135 117.379 132.177 125 132.177C132.621 132.177 140.18 133.167 147.678 135.147C155.176 137.127 163.043 139.97 171.278 143.675C175.089 145.463 178.161 148.082 180.497 151.531C182.832 154.981 184 159.133 184 163.987V182H66Z" fill="#959595"/>
</svg>
