<svg width="250" height="246" viewBox="0 0 250 246" fill="none" xmlns="http://www.w3.org/2000/svg">
<rect y="246" width="246" height="250" rx="8" transform="rotate(-90 0 246)" fill="#BFBFBF"/>
<path d="M125 120.488C116.887 120.488 110.25 117.805 105.087 112.44C99.9249 107.074 97.3436 100.175 97.3436 91.7439C97.3436 83.3123 99.9249 76.4138 105.087 71.0483C110.25 65.6827 116.887 62.9999 125 62.9999C133.112 62.9999 139.75 65.6827 144.912 71.0483C150.075 76.4138 152.656 83.3123 152.656 91.7439C152.656 100.175 150.075 107.074 144.912 112.44C139.75 117.805 133.112 120.488 125 120.488ZM65.9999 182V163.987C65.9999 159.133 67.1676 154.981 69.503 151.531C71.8384 148.082 74.8499 145.463 78.5374 143.675C86.7728 139.842 94.6702 136.968 102.23 135.051C109.789 133.135 117.379 132.177 125 132.177C132.621 132.177 140.18 133.167 147.678 135.147C155.176 137.127 163.043 139.97 171.278 143.675C175.088 145.463 178.161 148.082 180.497 151.531C182.832 154.981 184 159.133 184 163.987V182H65.9999Z" fill="#959595"/>
</svg>
